<svg viewBox="0 0 24 24" aria-hidden="true"><path d="M12 2.2c3.2 0 3.6 0 4.9.07 1.2.06 1.9.26 2.3.43.6.23 1 .5 1.5 1 .5.5.8.9 1 1.5.2.4.4 1 .4 2.3.1 1.3.1 1.7.1 4.9s0 3.6-.1 4.9c-.1 1.2-.3 1.9-.4 2.3-.2.6-.5 1-1 1.5-.5.5-.9.8-1.5 1-.4.2-1 .4-2.3.4-1.3.1-1.7.1-4.9.1s-3.6 0-4.9-.1c-1.2-.1-1.9-.3-2.3-.4-.6-.2-1-.5-1.5-1-.5-.5-.8-.9-1-1.5-.2-.4-.4-1-.4-2.3C2.2 15.6 2.2 15.2 2.2 12s0-3.6.1-4.9c.1-1.2.3-1.9.4-2.3.2-.6.5-1 1-1.5.5-.5.9-.8 1.5-1 .4-.2 1-.4 2.3-.4C8.4 2.2 8.8 2.2 12 2.2zm0 1.8c-3.1 0-3.5 0-4.8.1-1 .1-1.6.2-2 .4-.5.2-.8.4-1.1.7-.3.3-.5.6-.7 1.1-.2.4-.4 1-.4 2-.1 1.3-.1 1.6-.1 4.7s0 3.5.1 4.8c.1 1 .2 1.6.4 2 .2.5.4.8.7 1.1.3.3.6.5 1.1.7.4.2 1 .4 2 .4 1.3.1 1.6.1 4.7.1s3.5 0 4.8-.1c1-.1 1.6-.2 2-.4.5-.2.8-.4 1.1-.7.3-.3.5-.6.7-1.1.2-.4.4-1 .4-2 .1-1.3.1-1.6.1-4.7s0-3.5-.1-4.8c-.1-1-.2-1.6-.4-2-.2-.5-.4-.8-.7-1.1-.3-.3-.6-.5-1.1-.7-.4-.2-1-.4-2-.4-1.3-.2-1.7-.2-4.8-.2zm0 3.4a5.2 5.2 0 110 10.4 5.2 5.2 0 010-10.4zm0 1.8a3.4 3.4 0 100 6.8 3.4 3.4 0 000-6.8zm6-2.1a1.2 1.2 0 110 2.4 1.2 1.2 0 010-2.4z"/></svg>